<?xml version="1.0" encoding="utf-8"?>
<!-- Generator: Adobe Illustrator 22.1.0, SVG Export Plug-In . SVG Version: 6.00 Build 0)  -->
<svg version="1.1" id="Camada_1" xmlns="http://www.w3.org/2000/svg" xmlns:xlink="http://www.w3.org/1999/xlink" x="0px" y="0px"
	 viewBox="0 0 50.3 50.3" style="enable-background:new 0 0 50.3 50.3;" xml:space="preserve">
<style type="text/css">
	.st0{fill:#D4D4D4;}
</style>
<g>
	<path class="st0" d="M25.6,33.1c-0.1-0.2-0.2-0.4-0.3-0.6c-0.1-0.2-0.3-0.4-0.4-0.5c-0.1-0.1-0.2-0.3-0.4-0.5
		c-0.2-0.2-0.4-0.3-0.5-0.4c-0.1-0.1-0.3-0.2-0.5-0.4c-0.3-0.2-0.4-0.3-0.5-0.4c-0.1-0.1-0.3-0.2-0.6-0.4c-0.3-0.2-0.4-0.3-0.5-0.4
		c-0.2,0-0.5,0-0.8,0c-0.6,0-1.2,0-1.8,0.1c-0.6,0.1-1.2,0.2-1.8,0.4c-0.6,0.2-1.2,0.5-1.6,0.8c-0.5,0.3-0.9,0.7-1.2,1.3
		c-0.3,0.5-0.5,1.1-0.5,1.8c0,0.8,0.2,1.4,0.6,2c0.4,0.6,0.9,1.1,1.6,1.4c0.6,0.3,1.3,0.6,2,0.8c0.7,0.2,1.4,0.3,2.1,0.3
		c0.7,0,1.3-0.1,1.9-0.2c0.6-0.1,1.2-0.4,1.7-0.7c0.5-0.3,0.9-0.7,1.2-1.2c0.3-0.5,0.5-1.1,0.5-1.8c0-0.2,0-0.5-0.1-0.7
		C25.7,33.4,25.7,33.2,25.6,33.1z"/>
	<path class="st0" d="M23.1,22.6c0.5-0.7,0.7-1.6,0.7-2.7c0-0.7-0.1-1.4-0.3-2.1c-0.2-0.8-0.4-1.5-0.8-2.2c-0.3-0.7-0.8-1.3-1.4-1.7
		s-1.3-0.7-2-0.7c-1,0-1.8,0.4-2.4,1.2c-0.6,0.8-0.9,1.7-0.9,2.8c0,0.5,0.1,1.1,0.2,1.7c0.1,0.6,0.3,1.2,0.6,1.7
		c0.3,0.6,0.6,1.1,0.9,1.6c0.4,0.5,0.8,0.8,1.3,1.1s1.1,0.4,1.6,0.4C21.9,23.6,22.6,23.3,23.1,22.6z"/>
	<path class="st0" d="M25.1,0C11.2,0,0,11.3,0,25.1C0,39,11.2,50.3,25.1,50.3C39,50.3,50.3,39,50.3,25.1C50.3,11.3,39,0,25.1,0z
		 M25.9,37.6c-1.7,1.5-4,2.2-7,2.2c-0.7,0-1.3-0.1-2-0.2c-0.7-0.1-1.4-0.3-2-0.6c-0.7-0.3-1.3-0.6-1.8-1c-0.5-0.4-1-0.9-1.3-1.5
		c-0.3-0.6-0.5-1.3-0.5-2c0-0.7,0.2-1.4,0.6-2.3c0.4-0.7,0.9-1.3,1.6-1.8c0.7-0.5,1.5-0.9,2.4-1.2c0.9-0.3,1.8-0.5,2.6-0.6
		c0.8-0.1,1.7-0.2,2.5-0.2c-0.7-0.9-1.1-1.8-1.1-2.5c0-0.1,0-0.3,0-0.4c0-0.1,0-0.2,0.1-0.3c0-0.1,0.1-0.2,0.1-0.4
		c0.1-0.2,0.1-0.3,0.1-0.4c-0.4,0.1-0.8,0.1-1.2,0.1c-1.7,0-3.1-0.5-4.3-1.6s-1.8-2.5-1.8-4.1c0-1.6,0.5-2.9,1.6-4.2
		c1.1-1.2,2.4-2,3.9-2.4c1-0.2,2.1-0.3,3.1-0.3H29l-2.3,1.3h-2.3c0.8,0.5,1.4,1.2,1.8,2.1c0.4,0.9,0.7,1.8,0.7,2.8
		c0,0.8-0.1,1.6-0.4,2.2c-0.3,0.6-0.6,1.2-0.9,1.5c-0.4,0.4-0.7,0.7-1.1,1.1c-0.4,0.3-0.7,0.7-0.9,1c-0.3,0.4-0.4,0.7-0.4,1.1
		c0,0.3,0.1,0.6,0.3,0.9c0.2,0.3,0.4,0.5,0.7,0.8c0.3,0.3,0.6,0.5,1,0.8c0.4,0.3,0.7,0.6,1.1,0.9c0.4,0.3,0.7,0.7,1,1.1
		c0.3,0.4,0.5,0.9,0.7,1.4c0.2,0.6,0.3,1.1,0.3,1.8C28.2,34.7,27.4,36.2,25.9,37.6z M39,17.9h-4.7v4.8h-1.4v-4.8h-4.6v-1.1h4.6V12
		h1.4v4.7H39V17.9z"/>
</g>
</svg>
