<?xml version="1.0" encoding="utf-8"?>
<!-- Generator: Adobe Illustrator 22.1.0, SVG Export Plug-In . SVG Version: 6.00 Build 0)  -->
<svg version="1.1" id="Camada_1" xmlns="http://www.w3.org/2000/svg" xmlns:xlink="http://www.w3.org/1999/xlink" x="0px" y="0px"
	 viewBox="0 0 50.3 50.3" style="enable-background:new 0 0 50.3 50.3;" xml:space="preserve">
<style type="text/css">
	.st0{fill:#D4D4D4;}
</style>
<path class="st0" d="M25.1,0C11.2,0,0,11.3,0,25.1C0,39,11.2,50.3,25.1,50.3C39,50.3,50.3,39,50.3,25.1C50.3,11.3,39,0,25.1,0z
	 M18.5,37.1h-5.3V21.2h5.3V37.1z M15.9,18.5c-1.5,0-2.6-1.2-2.6-2.6c0-1.5,1.2-2.6,2.6-2.6c1.5,0,2.6,1.2,2.6,2.6
	C18.5,17.3,17.3,18.5,15.9,18.5z M37.1,37.1h-5.3v-8.9c0-1.4-1.6-2.6-3-2.6c-1.4,0-2.3,1.2-2.3,2.6v8.9h-5.3V21.2h5.3v2.6
	c0.9-1.4,3.1-2.3,4.6-2.3c3.3,0,6,2.7,6,6V37.1z"/>
</svg>
