<?xml version="1.0" encoding="utf-8"?>
<!-- Generator: Adobe Illustrator 22.1.0, SVG Export Plug-In . SVG Version: 6.00 Build 0)  -->
<svg version="1.1" id="Camada_1" xmlns="http://www.w3.org/2000/svg" xmlns:xlink="http://www.w3.org/1999/xlink" x="0px" y="0px"
	 viewBox="0 0 50.3 50.3" style="enable-background:new 0 0 50.3 50.3;" xml:space="preserve">
<style type="text/css">
	.st0{fill:#D4D4D4;}
</style>
<path class="st0" d="M25.1,0C11.2,0,0,11.3,0,25.2C0,39,11.2,50.3,25.1,50.3S50.3,39,50.3,25.2C50.3,11.3,39,0,25.1,0z M25.1,41.4
	c-1.7,0-3.2-0.3-4.8-0.7c0,0,0,0,0,0v0c0,0,0,0,0,0c0.7-1.1,1.7-3,2.1-4.3l1.1-3.8c0.6,1,2.1,1.8,3.7,1.8c5,0,8.4-4.5,8.4-10.1
	c0-5.3-4.4-9.3-9.9-9.3c-7,0-10.7,4.7-10.7,9.8c0,2.4,1.2,5.3,3.3,6.3c0.3,0.2,0.5,0.1,0.5-0.2l0.5-1.8c0-0.2,0-0.4-0.1-0.5
	c-0.7-0.9-1.2-2.3-1.2-3.7c0-3.6,2.7-7,7.3-7c4,0,6.8,2.7,6.8,6.6c0,4.4-2.2,7.4-5.1,7.4c-1.6,0-2.7-1.4-2.5-3
	c0.5-1.9,1.4-3.9,1.4-5.3c0-1.3-0.6-2.3-2-2.3c-1.6,0-3,1.7-3,3.9c0,1.5,0.5,2.4,0.5,2.4l-1.9,8c-0.3,1.4-0.1,3.5,0,4.8
	C13.2,38,8.9,32.1,8.9,25.2c0-9,7.3-16.2,16.2-16.2s16.2,7.3,16.2,16.2S34.1,41.4,25.1,41.4z"/>
</svg>
