<?xml version="1.0" encoding="utf-8"?>
<!-- Generator: Adobe Illustrator 22.1.0, SVG Export Plug-In . SVG Version: 6.00 Build 0)  -->
<svg version="1.1" id="Camada_1" xmlns="http://www.w3.org/2000/svg" xmlns:xlink="http://www.w3.org/1999/xlink" x="0px" y="0px"
	 viewBox="0 0 50.3 50.3" style="enable-background:new 0 0 50.3 50.3;" xml:space="preserve">
<style type="text/css">
	.st0{fill:#D4D4D4;}
</style>
<path class="st0" d="M25.2,0C11.3,0,0,11.3,0,25.1C0,39,11.3,50.3,25.2,50.3C39,50.3,50.3,39,50.3,25.1C50.3,11.3,39,0,25.2,0z
	 M35.7,21c0,0.3,0,0.5,0,0.7c0,7.5-5.7,16.1-16.1,16.1c-3.2,0-6.2-0.9-8.7-2.5c0.4,0.1,0.9,0.1,1.3,0.1c2.7,0,5.1-0.9,7-2.4
	c-2.5,0-4.6-1.7-5.3-3.9c0.3,0.1,0.7,0.1,1.1,0.1c0.5,0,1-0.1,1.5-0.2C14,28.4,12,26.1,12,23.4c0,0,0,0,0,0c0.8,0.4,1.6,0.7,2.6,0.7
	c-1.5-1-2.5-2.7-2.5-4.7c0-1,0.3-2,0.8-2.8c2.8,3.4,7,5.7,11.6,5.9c-0.1-0.4-0.1-0.8-0.1-1.3c0-3.1,2.5-5.6,5.6-5.6
	c1.7,0,3.1,0.7,4.2,1.8c1.3-0.3,2.5-0.7,3.6-1.4c-0.4,1.3-1.3,2.4-2.5,3.1c1.1-0.1,2.2-0.4,3.2-0.9C37.7,19.2,36.8,20.2,35.7,21z"/>
</svg>
