<?xml version="1.0" encoding="utf-8"?>
<!-- Generator: Adobe Illustrator 22.1.0, SVG Export Plug-In . SVG Version: 6.00 Build 0)  -->
<svg version="1.1" id="Camada_1" xmlns="http://www.w3.org/2000/svg" xmlns:xlink="http://www.w3.org/1999/xlink" x="0px" y="0px"
	 viewBox="0 0 50.3 50.3" style="enable-background:new 0 0 50.3 50.3;" xml:space="preserve">
<style type="text/css">
	.st0{fill:#D4D4D4;}
</style>
<g>
	<path class="st0" d="M22,36.6c0,0.1,0,0.1,0,0.2c-0.2,0.3-0.5,0.5-0.8,0.7c-0.3,0.1-0.6,0-0.6-0.3c0-0.1,0-0.3,0-0.4
		c0-2.4,0-7.2,0-7.3h-1.8c0,0.1,0,6.9,0,8.1c0,0.3,0,0.7,0.2,1c0.2,0.3,0.4,0.6,0.8,0.6c0.3,0,0.6,0,0.8-0.1c0.5-0.2,1-0.5,1.4-1
		c0,0,0.1-0.1,0.1-0.1v1.1h1.8v-4.7c0-1.6,0-5,0-5l-1.8,0V36.6z"/>
	<path class="st0" d="M30.3,30.2c-0.4-0.8-1.1-1-1.8-0.8c-0.4,0.1-0.7,0.3-1,0.6c-0.1,0.1-0.2,0.3-0.2,0.3s0-2.9,0-4.3h-1.8v13.1
		h1.8v-0.7c0,0,0.1,0.1,0.2,0.2c0.4,0.4,0.9,0.7,1.5,0.7c0.7,0,1.3-0.4,1.5-1.1c0.1-0.3,0.1-0.7,0.1-1c0-1.8,0-3.7,0-5.5
		C30.6,31.1,30.6,30.6,30.3,30.2z M28.8,37.2c-0.1,0.4-0.4,0.6-0.8,0.5c-0.3-0.1-0.4-0.2-0.6-0.4c0,0-0.1-0.1-0.1-0.1v-0.1l0-5.8
		c0,0,0-0.1,0.1-0.2c0.2-0.2,0.4-0.3,0.7-0.3c0.2,0,0.4,0.1,0.5,0.4c0.1,0.2,0.1,0.4,0.1,0.5c0,1.7,0,3.5,0,5.2
		C28.8,37,28.8,37.1,28.8,37.2z"/>
	<polygon class="st0" points="18.7,26 12.7,26 12.7,27.9 14.7,27.9 14.7,39.1 16.7,39.1 16.7,27.9 18.7,27.9 	"/>
	<path class="st0" d="M24,18.8c0.4,0,0.7-0.3,0.7-0.7v-5.3c0-0.4-0.3-0.7-0.7-0.7c-0.4,0-0.7,0.3-0.7,0.7V18
		C23.3,18.4,23.6,18.8,24,18.8z"/>
	<path class="st0" d="M37.2,34.5c0,0,0-1.7,0-2.5c0-0.3,0-0.7-0.1-1c-0.2-0.8-0.6-1.5-1.5-1.7c-0.2-0.1-0.5-0.1-0.8-0.1
		c-0.9-0.1-1.6,0.2-2.2,0.8c-0.5,0.6-0.7,1.3-0.7,2c0,1.4,0,2.9,0,4.3c0,0.4,0,0.7,0.1,1.1c0.2,0.8,0.6,1.4,1.3,1.7
		c0.5,0.2,1.1,0.3,1.7,0.2c0.9-0.1,1.6-0.6,1.9-1.5c0.2-0.7,0.2-2.1,0.2-2.1h-1.8v1.2c0,0.4-0.4,0.8-0.8,0.8c-0.4,0-0.8-0.4-0.8-0.8
		v-2.4H37.2z M33.8,31.6c0-0.4,0.4-0.8,0.8-0.8c0.4,0,0.8,0.4,0.8,0.8V33h-1.6V31.6z"/>
	<path class="st0" d="M25.1,0C11.2,0,0,11.3,0,25.1C0,39,11.2,50.3,25.1,50.3C39,50.3,50.3,39,50.3,25.1C50.3,11.3,39,0,25.1,0z
		 M28.1,10.5h1.8v7.4c0,0.1,0,0.2,0,0.3c0.1,0.3,0.3,0.4,0.6,0.3c0.4-0.1,0.6-0.4,0.9-0.7c0,0,0-0.1,0-0.2v-7.2h1.8l0,9.7h-1.8l0-1
		c-0.2,0.2-0.4,0.4-0.6,0.5c-0.3,0.3-0.7,0.5-1.1,0.6c-0.7,0.1-1.2-0.1-1.5-0.8c-0.1-0.2-0.1-0.5-0.1-0.7V10.5z M24,10.3
		c1.4,0,2.6,1.2,2.6,2.6v5c0,1.4-1.2,2.6-2.6,2.6s-2.6-1.2-2.6-2.6v-5C21.4,11.4,22.6,10.3,24,10.3z M17.1,7.1c0,0,0.8,3.5,1.2,5.1
		h0c0.4-1.6,1.2-5.1,1.2-5.1h2.1c0,0-1.6,5.2-2.3,7.6c0,0.1,0,0.2,0,0.3l0,5.3h-1.9l0-5.3c0-0.1,0-0.2,0-0.3
		C16.6,12.3,15,7.1,15,7.1H17.1z M39.6,38.1c0,2.4-1.9,4.3-4.3,4.4c-6.9,0.1-13.8,0.1-20.6,0c-2.4-0.1-4.3-2-4.3-4.4V27.3
		c0-2.4,1.9-4.3,4.3-4.4c6.9-0.1,13.8-0.1,20.6,0c2.4,0.1,4.3,2,4.3,4.4V38.1z"/>
</g>
</svg>
